 http://img705.imageshack.us/img705/6492/1hnwhaqp.jpg

Country.......: USA
Genre.........: Dokumentary, History
Date release..: 2008 [World]
Director......: Kevin VanHook
Writers.......: Kevin VanHook
Duration......: 58 min.
More..........: http://www.imdb.com/title/tt1292039
Trailer.......: http://www.starz.com/titles/StarzInsideFantasticFlesh

Pilot :
This documentary delves into the art of make-up effects with industry legends Dick Smith, Rob Bottin, Tom Savini, John Landis, Frank Darabont, Joe Dante and many others with a strong focus on Greg Nicotero and Howard Berger of KNB Make-Up EFX.

Cats :
Howard Berger   	 ...  	Himself
Rob Bottin 	... 	Himself
Josh Brolin 	... 	Himself
John Carpenter 	... 	Himself
Wes Craven 	... 	Himself
Joe Dante 	... 	Himself
Frank Darabont 	... 	Himself
Peter Dinklage 	... 	Himself
Mick Garris 	... 	Himself
Jordan Ladd 	... 	Herself
John Landis 	... 	Himself
Gregory Nicotero 	... 	Himself
Simon Pegg 	... 	Himself
Robert Rodriguez 	... 	Himself
George A. Romero 	... 	Himself 

Data Technical :
!!! SAMPLE !!!
Audio.....: English
Subtitles.: None
Format                           : AVI
Format/Info                      : Audio Video Interleave
File size                        : 700 MiB
Duration                         : 58mn 18s
Overall bit rate                 : 1 678 Kbps
Writing application              : Nandub v1.0rc2
Writing library                  : Nandub build 1852/release
Video
ID                               : 0
Format                           : MPEG-4 Visual
Format profile                   : Advanced Simple@L5
Format settings, BVOP            : No
Format settings, QPel            : No
Format settings, GMC             : No warppoints
Format settings, Matrix          : Default (H.263)
Codec ID                         : XVID
Codec ID/Hint                    : XviD
Duration                         : 58mn 18s
Bit rate                         : 1 572 Kbps
Width                            : 576 pixels
Height                           : 320 pixels
Display aspect ratio             : 16:9
Frame rate                       : 29.970 fps
Color space                      : YUV
Chroma subsampling               : 4:2:0
Bit depth                        : 8 bits
Scan type                        : Progressive
Bits/(Pixel*Frame)               : 0.285
Stream size                      : 656 MiB (94%)
Writing library                  : XviD 1.1.2 (UTC 2006-11-01)
Audio
ID                               : 1
Format                           : MPEG Audio
Format version                   : Version 1
Format profile                   : Layer 3
Codec ID                         : 55
Codec ID/Hint                    : MP3
Duration                         : 58mn 16s
Bit rate mode                    : Variable
Bit rate                         : 91.9 Kbps
Minimum bit rate                 : 40.0 Kbps
Channel(s)                       : 2 channels
Sampling rate                    : 48.0 KHz
Stream size                      : 38.3 MiB (5%)
Alignment                        : Aligned on interleaves
Interleave, duration             : 24 ms (0.72 video frame)
Interleave, preload duration     : 231 ms
Writing library                  : LAME3.95 
Encoding settings                : -m s -V 6 -q 3 -lowpass 16 --vbr-old -b 40

Screen : 
http://img820.imageshack.us/img820/985/starzinsidefantasticfle.jpg 
http://img834.imageshack.us/img834/985/starzinsidefantasticfle.jpg 
http://img705.imageshack.us/img705/985/starzinsidefantasticfle.jpg 
http://img815.imageshack.us/img815/985/starzinsidefantasticfle.jpg 
http://img7.imageshack.us/img7/985/starzinsidefantasticfle.jpg